# xmcd
#
# Track frame offsets:
# 150
# 16977
# 31520
# 47507
# 63365
# 82270
# 98560
# 113892
# 130615
# 150692
# 168112
# 185695
# 205177
# 223502
#
# Disc length: 3229 seconds
#
#
# Revision: 1
# Processed by: cddbd v1.5.2PL0 Copyright (c) Steve Scherf et al.
# Submitted via: FreeRIP 2.941 
#
DISCID=ad0c9b0e
DTITLE=Zezé di Camargo and Luciano - O melhor de Zezé di Camargo and Luciano - CD 03 - Seleções do Reader´s Digest
DYEAR=2006
DGENRE=Country
TTITLE0=Tristeza do Jeca
TTITLE1=No dia em que eu saí de casa
TTITLE2=Como um anjo
TTITLE3=Pedaço de mim
TTITLE4=Será que foi saudade?
TTITLE5=Tarde demais
TTITLE6=Quem sou eu sem ela
TTITLE7=Salva meu coração
TTITLE8=Cada volta é um recomeço
TTITLE9=Demorou demais
TTITLE10=Sem você
TTITLE11=Amor selvagem
TTITLE12=Dois corações e um história
TTITLE13=Antes de voltar pra casa
EXTD=++++++++++++++++\nripado por:\nrsilvino@terra.com.br
EXTT0=
EXTT1=
EXTT2=
EXTT3=
EXTT4=
EXTT5=
EXTT6=
EXTT7=
EXTT8=
EXTT9=
EXTT10=
EXTT11=
EXTT12=
EXTT13=
PLAYORDER=
